<!DOCTYPE svg PUBLIC "-//W3C//DTD SVG 1.1//EN" "http://www.w3.org/Graphics/SVG/1.1/DTD/svg11.dtd">
<!-- Uploaded to: SVG Repo, www.svgrepo.com, Transformed by: SVG Repo Mixer Tools -->
<svg height="800px" width="800px" version="1.1" id="Layer_1" xmlns="http://www.w3.org/2000/svg" xmlns:xlink="http://www.w3.org/1999/xlink" viewBox="0 0 512 512" xml:space="preserve" fill="#000000">
<g id="SVGRepo_bgCarrier" stroke-width="0"/>
<g id="SVGRepo_tracerCarrier" stroke-linecap="round" stroke-linejoin="round"/>
<g id="SVGRepo_iconCarrier"> <path style="fill:#7BD9BF;" d="M256,0C114.842,0,0,114.842,0,256s114.842,256,256,256s256-114.842,256-256S397.158,0,256,0z"/> <path style="fill:#549498;" d="M350.255,138.473H256h-94.255c-12.853,0-23.273,10.42-23.273,23.273v188.509 c0,12.853,10.42,23.273,23.273,23.273H256h94.255c12.853,0,23.273-10.42,23.273-23.273V161.745 C373.527,148.893,363.107,138.473,350.255,138.473z"/> <path style="fill:#66B4BA;" d="M161.745,373.527c-12.853,0-23.273-10.42-23.273-23.273V161.745c0-12.853,10.42-23.273,23.273-23.273 H256V0C114.842,0,0,114.842,0,256s114.842,256,256,256V373.527H161.745z"/> </g>
</svg>